ISO-10303-21;
HEADER;
/* Generated by software containing ST-Developer
 * from STEP Tools, Inc. (www.steptools.com) 
 */

FILE_DESCRIPTION(
/* description */ (''),
/* implementation_level */ '2;1');

FILE_NAME(
/* name */ 'GC Nano LCD Jewel.step',
/* time_stamp */ '2026-03-16T16:06:46-07:00',
/* author */ (''),
/* organization */ (''),
/* preprocessor_version */ 'ST-DEVELOPER v20.1',
/* originating_system */ 'Autodesk Translation Framework v14.24.0.0',
/* authorisation */ '');

FILE_SCHEMA (('AUTOMOTIVE_DESIGN { 1 0 10303 214 3 1 1 }'));
ENDSEC;

DATA;
#10=MECHANICAL_DESIGN_GEOMETRIC_PRESENTATION_REPRESENTATION('',(#13),#314);
#11=SHAPE_REPRESENTATION_RELATIONSHIP('SRR','None',#321,#12);
#12=ADVANCED_BREP_SHAPE_REPRESENTATION('',(#14),#313);
#13=STYLED_ITEM('',(#330),#14);
#14=MANIFOLD_SOLID_BREP('Body1',#178);
#15=FACE_BOUND('',#47,.T.);
#16=FACE_BOUND('',#49,.T.);
#17=FACE_BOUND('',#52,.T.);
#18=FACE_BOUND('',#56,.T.);
#19=CIRCLE('',#196,15.1);
#20=CIRCLE('',#197,15.1);
#21=CIRCLE('',#199,15.95);
#22=CIRCLE('',#201,20.3851562634328);
#23=CIRCLE('',#202,16.7125509866148);
#24=CIRCLE('',#204,20.3851562634328);
#25=CIRCLE('',#207,15.95);
#26=CIRCLE('',#209,16.7125509866148);
#27=CYLINDRICAL_SURFACE('',#195,15.1);
#28=CYLINDRICAL_SURFACE('',#203,20.3851562634328);
#29=CYLINDRICAL_SURFACE('',#206,15.95);
#30=CYLINDRICAL_SURFACE('',#208,16.7125509866148);
#31=FACE_OUTER_BOUND('',#42,.T.);
#32=FACE_OUTER_BOUND('',#43,.T.);
#33=FACE_OUTER_BOUND('',#44,.T.);
#34=FACE_OUTER_BOUND('',#45,.T.);
#35=FACE_OUTER_BOUND('',#46,.T.);
#36=FACE_OUTER_BOUND('',#48,.T.);
#37=FACE_OUTER_BOUND('',#50,.T.);
#38=FACE_OUTER_BOUND('',#51,.T.);
#39=FACE_OUTER_BOUND('',#53,.T.);
#40=FACE_OUTER_BOUND('',#54,.T.);
#41=FACE_OUTER_BOUND('',#55,.T.);
#42=EDGE_LOOP('',(#118,#119,#120,#121));
#43=EDGE_LOOP('',(#122,#123,#124,#125));
#44=EDGE_LOOP('',(#126,#127,#128,#129));
#45=EDGE_LOOP('',(#130,#131,#132,#133));
#46=EDGE_LOOP('',(#134));
#47=EDGE_LOOP('',(#135));
#48=EDGE_LOOP('',(#136,#137,#138,#139));
#49=EDGE_LOOP('',(#140));
#50=EDGE_LOOP('',(#141,#142,#143,#144));
#51=EDGE_LOOP('',(#145,#146,#147,#148));
#52=EDGE_LOOP('',(#149));
#53=EDGE_LOOP('',(#150,#151,#152,#153));
#54=EDGE_LOOP('',(#154,#155,#156,#157));
#55=EDGE_LOOP('',(#158));
#56=EDGE_LOOP('',(#159));
#57=LINE('',#268,#70);
#58=LINE('',#270,#71);
#59=LINE('',#272,#72);
#60=LINE('',#273,#73);
#61=LINE('',#277,#74);
#62=LINE('',#279,#75);
#63=LINE('',#281,#76);
#64=LINE('',#282,#77);
#65=LINE('',#284,#78);
#66=LINE('',#285,#79);
#67=LINE('',#290,#80);
#68=LINE('',#305,#81);
#69=LINE('',#309,#82);
#70=VECTOR('',#215,10.);
#71=VECTOR('',#216,10.);
#72=VECTOR('',#217,10.);
#73=VECTOR('',#218,10.);
#74=VECTOR('',#221,10.);
#75=VECTOR('',#222,10.);
#76=VECTOR('',#223,10.);
#77=VECTOR('',#224,10.);
#78=VECTOR('',#227,10.);
#79=VECTOR('',#228,10.);
#80=VECTOR('',#233,15.);
#81=VECTOR('',#256,15.75);
#82=VECTOR('',#261,16.7125509866148);
#83=VERTEX_POINT('',#266);
#84=VERTEX_POINT('',#267);
#85=VERTEX_POINT('',#269);
#86=VERTEX_POINT('',#271);
#87=VERTEX_POINT('',#275);
#88=VERTEX_POINT('',#276);
#89=VERTEX_POINT('',#278);
#90=VERTEX_POINT('',#280);
#91=VERTEX_POINT('',#287);
#92=VERTEX_POINT('',#289);
#93=VERTEX_POINT('',#293);
#94=VERTEX_POINT('',#297);
#95=VERTEX_POINT('',#303);
#96=VERTEX_POINT('',#307);
#97=EDGE_CURVE('',#83,#84,#57,.T.);
#98=EDGE_CURVE('',#85,#84,#58,.T.);
#99=EDGE_CURVE('',#85,#86,#59,.T.);
#100=EDGE_CURVE('',#86,#83,#60,.T.);
#101=EDGE_CURVE('',#87,#88,#61,.T.);
#102=EDGE_CURVE('',#89,#88,#62,.T.);
#103=EDGE_CURVE('',#89,#90,#63,.T.);
#104=EDGE_CURVE('',#87,#90,#64,.T.);
#105=EDGE_CURVE('',#88,#83,#65,.T.);
#106=EDGE_CURVE('',#86,#89,#66,.T.);
#107=EDGE_CURVE('',#91,#91,#19,.F.);
#108=EDGE_CURVE('',#91,#92,#67,.T.);
#109=EDGE_CURVE('',#92,#92,#20,.F.);
#110=EDGE_CURVE('',#93,#93,#21,.F.);
#111=EDGE_CURVE('',#87,#84,#22,.T.);
#112=EDGE_CURVE('',#94,#94,#23,.T.);
#113=EDGE_CURVE('',#85,#90,#24,.T.);
#114=EDGE_CURVE('',#95,#95,#25,.F.);
#115=EDGE_CURVE('',#95,#93,#68,.T.);
#116=EDGE_CURVE('',#96,#96,#26,.T.);
#117=EDGE_CURVE('',#96,#94,#69,.T.);
#118=ORIENTED_EDGE('',*,*,#97,.T.);
#119=ORIENTED_EDGE('',*,*,#98,.F.);
#120=ORIENTED_EDGE('',*,*,#99,.T.);
#121=ORIENTED_EDGE('',*,*,#100,.T.);
#122=ORIENTED_EDGE('',*,*,#101,.T.);
#123=ORIENTED_EDGE('',*,*,#102,.F.);
#124=ORIENTED_EDGE('',*,*,#103,.T.);
#125=ORIENTED_EDGE('',*,*,#104,.F.);
#126=ORIENTED_EDGE('',*,*,#105,.T.);
#127=ORIENTED_EDGE('',*,*,#100,.F.);
#128=ORIENTED_EDGE('',*,*,#106,.T.);
#129=ORIENTED_EDGE('',*,*,#102,.T.);
#130=ORIENTED_EDGE('',*,*,#107,.F.);
#131=ORIENTED_EDGE('',*,*,#108,.T.);
#132=ORIENTED_EDGE('',*,*,#109,.T.);
#133=ORIENTED_EDGE('',*,*,#108,.F.);
#134=ORIENTED_EDGE('',*,*,#110,.F.);
#135=ORIENTED_EDGE('',*,*,#107,.T.);
#136=ORIENTED_EDGE('',*,*,#111,.T.);
#137=ORIENTED_EDGE('',*,*,#97,.F.);
#138=ORIENTED_EDGE('',*,*,#105,.F.);
#139=ORIENTED_EDGE('',*,*,#101,.F.);
#140=ORIENTED_EDGE('',*,*,#112,.F.);
#141=ORIENTED_EDGE('',*,*,#104,.T.);
#142=ORIENTED_EDGE('',*,*,#113,.F.);
#143=ORIENTED_EDGE('',*,*,#98,.T.);
#144=ORIENTED_EDGE('',*,*,#111,.F.);
#145=ORIENTED_EDGE('',*,*,#113,.T.);
#146=ORIENTED_EDGE('',*,*,#103,.F.);
#147=ORIENTED_EDGE('',*,*,#106,.F.);
#148=ORIENTED_EDGE('',*,*,#99,.F.);
#149=ORIENTED_EDGE('',*,*,#109,.F.);
#150=ORIENTED_EDGE('',*,*,#114,.F.);
#151=ORIENTED_EDGE('',*,*,#115,.T.);
#152=ORIENTED_EDGE('',*,*,#110,.T.);
#153=ORIENTED_EDGE('',*,*,#115,.F.);
#154=ORIENTED_EDGE('',*,*,#116,.F.);
#155=ORIENTED_EDGE('',*,*,#117,.T.);
#156=ORIENTED_EDGE('',*,*,#112,.T.);
#157=ORIENTED_EDGE('',*,*,#117,.F.);
#158=ORIENTED_EDGE('',*,*,#116,.T.);
#159=ORIENTED_EDGE('',*,*,#114,.T.);
#160=PLANE('',#192);
#161=PLANE('',#193);
#162=PLANE('',#194);
#163=PLANE('',#198);
#164=PLANE('',#200);
#165=PLANE('',#205);
#166=PLANE('',#210);
#167=ADVANCED_FACE('',(#31),#160,.T.);
#168=ADVANCED_FACE('',(#32),#161,.T.);
#169=ADVANCED_FACE('',(#33),#162,.T.);
#170=ADVANCED_FACE('',(#34),#27,.F.);
#171=ADVANCED_FACE('',(#35,#15),#163,.T.);
#172=ADVANCED_FACE('',(#36,#16),#164,.T.);
#173=ADVANCED_FACE('',(#37),#28,.T.);
#174=ADVANCED_FACE('',(#38,#17),#165,.F.);
#175=ADVANCED_FACE('',(#39),#29,.F.);
#176=ADVANCED_FACE('',(#40),#30,.T.);
#177=ADVANCED_FACE('',(#41,#18),#166,.T.);
#178=CLOSED_SHELL('',(#167,#168,#169,#170,#171,#172,#173,#174,#175,#176,
#177));
#179=DERIVED_UNIT_ELEMENT(#181,1.);
#180=DERIVED_UNIT_ELEMENT(#316,-3.);
#181=(
MASS_UNIT()
NAMED_UNIT(*)
SI_UNIT(.KILO.,.GRAM.)
);
#182=DERIVED_UNIT((#179,#180));
#183=MEASURE_REPRESENTATION_ITEM('density measure',
POSITIVE_RATIO_MEASURE(7850.),#182);
#184=PROPERTY_DEFINITION_REPRESENTATION(#189,#186);
#185=PROPERTY_DEFINITION_REPRESENTATION(#190,#187);
#186=REPRESENTATION('material name',(#188),#313);
#187=REPRESENTATION('density',(#183),#313);
#188=DESCRIPTIVE_REPRESENTATION_ITEM('Steel','Steel');
#189=PROPERTY_DEFINITION('material property','material name',#323);
#190=PROPERTY_DEFINITION('material property','density of part',#323);
#191=AXIS2_PLACEMENT_3D('',#264,#211,#212);
#192=AXIS2_PLACEMENT_3D('',#265,#213,#214);
#193=AXIS2_PLACEMENT_3D('',#274,#219,#220);
#194=AXIS2_PLACEMENT_3D('',#283,#225,#226);
#195=AXIS2_PLACEMENT_3D('',#286,#229,#230);
#196=AXIS2_PLACEMENT_3D('',#288,#231,#232);
#197=AXIS2_PLACEMENT_3D('',#291,#234,#235);
#198=AXIS2_PLACEMENT_3D('',#292,#236,#237);
#199=AXIS2_PLACEMENT_3D('',#294,#238,#239);
#200=AXIS2_PLACEMENT_3D('',#295,#240,#241);
#201=AXIS2_PLACEMENT_3D('',#296,#242,#243);
#202=AXIS2_PLACEMENT_3D('',#298,#244,#245);
#203=AXIS2_PLACEMENT_3D('',#299,#246,#247);
#204=AXIS2_PLACEMENT_3D('',#300,#248,#249);
#205=AXIS2_PLACEMENT_3D('',#301,#250,#251);
#206=AXIS2_PLACEMENT_3D('',#302,#252,#253);
#207=AXIS2_PLACEMENT_3D('',#304,#254,#255);
#208=AXIS2_PLACEMENT_3D('',#306,#257,#258);
#209=AXIS2_PLACEMENT_3D('',#308,#259,#260);
#210=AXIS2_PLACEMENT_3D('',#310,#262,#263);
#211=DIRECTION('axis',(0.,0.,1.));
#212=DIRECTION('refdir',(1.,0.,0.));
#213=DIRECTION('center_axis',(-1.,0.,0.));
#214=DIRECTION('ref_axis',(0.,-1.,0.));
#215=DIRECTION('',(0.,1.,0.));
#216=DIRECTION('',(0.,0.,1.));
#217=DIRECTION('',(0.,-1.,0.));
#218=DIRECTION('',(0.,0.,1.));
#219=DIRECTION('center_axis',(1.,0.,0.));
#220=DIRECTION('ref_axis',(0.,1.,0.));
#221=DIRECTION('',(0.,-1.,0.));
#222=DIRECTION('',(0.,0.,1.));
#223=DIRECTION('',(0.,1.,0.));
#224=DIRECTION('',(0.,0.,-1.));
#225=DIRECTION('center_axis',(-4.15643196591039E-15,-1.,0.));
#226=DIRECTION('ref_axis',(1.,-4.15643196591039E-15,0.));
#227=DIRECTION('',(-1.,4.15643196591039E-15,0.));
#228=DIRECTION('',(1.,-4.15643196591039E-15,0.));
#229=DIRECTION('center_axis',(0.,0.,1.));
#230=DIRECTION('ref_axis',(1.,0.,0.));
#231=DIRECTION('center_axis',(0.,0.,1.));
#232=DIRECTION('ref_axis',(1.,0.,0.));
#233=DIRECTION('',(0.,0.,-1.));
#234=DIRECTION('center_axis',(0.,0.,1.));
#235=DIRECTION('ref_axis',(1.,0.,0.));
#236=DIRECTION('center_axis',(0.,0.,1.));
#237=DIRECTION('ref_axis',(1.,0.,0.));
#238=DIRECTION('center_axis',(0.,0.,1.));
#239=DIRECTION('ref_axis',(1.,0.,0.));
#240=DIRECTION('center_axis',(0.,0.,1.));
#241=DIRECTION('ref_axis',(1.,0.,0.));
#242=DIRECTION('center_axis',(0.,0.,1.));
#243=DIRECTION('ref_axis',(-0.0535335954951142,-0.998566048968903,0.));
#244=DIRECTION('center_axis',(0.,0.,1.));
#245=DIRECTION('ref_axis',(1.,0.,0.));
#246=DIRECTION('center_axis',(0.,0.,-1.));
#247=DIRECTION('ref_axis',(-0.00366678693035517,0.999993277314207,0.));
#248=DIRECTION('center_axis',(0.,0.,-1.));
#249=DIRECTION('ref_axis',(-0.0535335954951142,-0.998566048968903,0.));
#250=DIRECTION('center_axis',(0.,0.,1.));
#251=DIRECTION('ref_axis',(1.,0.,0.));
#252=DIRECTION('center_axis',(0.,0.,1.));
#253=DIRECTION('ref_axis',(1.,0.,0.));
#254=DIRECTION('center_axis',(0.,0.,1.));
#255=DIRECTION('ref_axis',(1.,0.,0.));
#256=DIRECTION('',(0.,0.,-1.));
#257=DIRECTION('center_axis',(0.,0.,1.));
#258=DIRECTION('ref_axis',(1.,0.,0.));
#259=DIRECTION('center_axis',(0.,0.,1.));
#260=DIRECTION('ref_axis',(1.,0.,0.));
#261=DIRECTION('',(0.,0.,-1.));
#262=DIRECTION('center_axis',(0.,0.,1.));
#263=DIRECTION('ref_axis',(1.,0.,0.));
#264=CARTESIAN_POINT('',(0.,0.,0.));
#265=CARTESIAN_POINT('Origin',(110.45235667292,-66.2598253097994,0.));
#266=CARTESIAN_POINT('',(110.45235667292,-67.8401228104376,0.));
#267=CARTESIAN_POINT('',(110.45235667292,-66.2598253097994,0.));
#268=CARTESIAN_POINT('',(110.45235667292,-66.652940803554,0.));
#269=CARTESIAN_POINT('',(110.45235667292,-66.2598253097994,-2.));
#270=CARTESIAN_POINT('',(110.45235667292,-66.2598253097994,0.));
#271=CARTESIAN_POINT('',(110.45235667292,-67.8401228104376,-2.));
#272=CARTESIAN_POINT('',(110.45235667292,-58.417319002527,-2.));
#273=CARTESIAN_POINT('',(110.45235667292,-67.8401228104376,0.));
#274=CARTESIAN_POINT('Origin',(112.589233751589,-67.8401228104376,0.));
#275=CARTESIAN_POINT('',(112.589233751589,-66.2519897841798,0.));
#276=CARTESIAN_POINT('',(112.589233751589,-67.8401228104376,0.));
#277=CARTESIAN_POINT('',(112.589233751589,-67.4430895538732,0.));
#278=CARTESIAN_POINT('',(112.589233751589,-67.8401228104376,-2.));
#279=CARTESIAN_POINT('',(112.589233751589,-67.8401228104376,0.));
#280=CARTESIAN_POINT('',(112.589233751589,-66.2519897841798,-2.));
#281=CARTESIAN_POINT('',(112.589233751589,-57.6232524893981,-2.));
#282=CARTESIAN_POINT('',(112.589233751589,-66.2519897841798,0.));
#283=CARTESIAN_POINT('Origin',(110.45235667292,-67.8401228104376,0.));
#284=CARTESIAN_POINT('',(110.986575942587,-67.8401228104376,0.));
#285=CARTESIAN_POINT('',(112.017691840301,-67.8401228104376,-2.));
#286=CARTESIAN_POINT('Origin',(111.446378443675,-45.8468630711802,0.));
#287=CARTESIAN_POINT('',(96.346378443675,-45.8468630711802,1.8));
#288=CARTESIAN_POINT('Origin',(111.446378443675,-45.8468630711802,1.8));
#289=CARTESIAN_POINT('',(96.346378443675,-45.8468630711802,-2.));
#290=CARTESIAN_POINT('',(96.346378443675,-45.8468630711802,0.));
#291=CARTESIAN_POINT('Origin',(111.446378443675,-45.8468630711802,-2.));
#292=CARTESIAN_POINT('Origin',(111.446149929013,-45.8989075787953,1.8));
#293=CARTESIAN_POINT('',(95.4961499290132,-45.8989075787953,1.8));
#294=CARTESIAN_POINT('Origin',(111.446149929013,-45.8989075787953,1.8));
#295=CARTESIAN_POINT('Origin',(111.446149929013,-45.8989075787953,0.));
#296=CARTESIAN_POINT('Origin',(111.446149929013,-45.8989075787953,0.));
#297=CARTESIAN_POINT('',(94.7338274570602,-45.8468630711802,0.));
#298=CARTESIAN_POINT('Origin',(111.446378443675,-45.8468630711802,0.));
#299=CARTESIAN_POINT('Origin',(111.446149929013,-45.8989075787953,0.));
#300=CARTESIAN_POINT('Origin',(111.446149929013,-45.8989075787953,-2.));
#301=CARTESIAN_POINT('Origin',(111.446149929013,-45.8989075787953,-2.));
#302=CARTESIAN_POINT('Origin',(111.446149929013,-45.8989075787953,0.));
#303=CARTESIAN_POINT('',(95.4961499290132,-45.8989075787953,2.2));
#304=CARTESIAN_POINT('Origin',(111.446149929013,-45.8989075787953,2.2));
#305=CARTESIAN_POINT('',(95.4961499290132,-45.8989075787953,0.));
#306=CARTESIAN_POINT('Origin',(111.446378443675,-45.8468630711802,0.));
#307=CARTESIAN_POINT('',(94.7338274570602,-45.8468630711802,2.2));
#308=CARTESIAN_POINT('Origin',(111.446378443675,-45.8468630711802,2.2));
#309=CARTESIAN_POINT('',(94.7338274570602,-45.8468630711802,0.));
#310=CARTESIAN_POINT('Origin',(111.446378443675,-45.8468630711802,2.2));
#311=UNCERTAINTY_MEASURE_WITH_UNIT(LENGTH_MEASURE(0.01),#315,
'DISTANCE_ACCURACY_VALUE',
'Maximum model space distance between geometric entities at asserted c
onnectivities');
#312=UNCERTAINTY_MEASURE_WITH_UNIT(LENGTH_MEASURE(0.01),#315,
'DISTANCE_ACCURACY_VALUE',
'Maximum model space distance between geometric entities at asserted c
onnectivities');
#313=(
GEOMETRIC_REPRESENTATION_CONTEXT(3)
GLOBAL_UNCERTAINTY_ASSIGNED_CONTEXT((#311))
GLOBAL_UNIT_ASSIGNED_CONTEXT((#315,#317,#318))
REPRESENTATION_CONTEXT('','3D')
);
#314=(
GEOMETRIC_REPRESENTATION_CONTEXT(3)
GLOBAL_UNCERTAINTY_ASSIGNED_CONTEXT((#312))
GLOBAL_UNIT_ASSIGNED_CONTEXT((#315,#317,#318))
REPRESENTATION_CONTEXT('','3D')
);
#315=(
LENGTH_UNIT()
NAMED_UNIT(*)
SI_UNIT(.MILLI.,.METRE.)
);
#316=(
LENGTH_UNIT()
NAMED_UNIT(*)
SI_UNIT($,.METRE.)
);
#317=(
NAMED_UNIT(*)
PLANE_ANGLE_UNIT()
SI_UNIT($,.RADIAN.)
);
#318=(
NAMED_UNIT(*)
SI_UNIT($,.STERADIAN.)
SOLID_ANGLE_UNIT()
);
#319=SHAPE_DEFINITION_REPRESENTATION(#320,#321);
#320=PRODUCT_DEFINITION_SHAPE('',$,#323);
#321=SHAPE_REPRESENTATION('',(#191),#313);
#322=PRODUCT_DEFINITION_CONTEXT('part definition',#327,'design');
#323=PRODUCT_DEFINITION('GC Nano LCD Jewel','GC Nano LCD Jewel v5',#324,
#322);
#324=PRODUCT_DEFINITION_FORMATION('',$,#329);
#325=PRODUCT_RELATED_PRODUCT_CATEGORY('GC Nano LCD Jewel v5',
'GC Nano LCD Jewel v5',(#329));
#326=APPLICATION_PROTOCOL_DEFINITION('international standard',
'automotive_design',2009,#327);
#327=APPLICATION_CONTEXT(
'Core Data for Automotive Mechanical Design Process');
#328=PRODUCT_CONTEXT('part definition',#327,'mechanical');
#329=PRODUCT('GC Nano LCD Jewel','GC Nano LCD Jewel v5',$,(#328));
#330=PRESENTATION_STYLE_ASSIGNMENT((#331));
#331=SURFACE_STYLE_USAGE(.BOTH.,#332);
#332=SURFACE_SIDE_STYLE('',(#333));
#333=SURFACE_STYLE_FILL_AREA(#334);
#334=FILL_AREA_STYLE('Steel - Satin',(#335));
#335=FILL_AREA_STYLE_COLOUR('Steel - Satin',#336);
#336=COLOUR_RGB('Steel - Satin',0.627450980392157,0.627450980392157,0.627450980392157);
ENDSEC;
END-ISO-10303-21;
